<?xml version="1.0" encoding="UTF-8"?>
<svg width="62px" height="62px" viewBox="0 0 52 52" version="1.1" xmlns="http://www.w3.org/2000/svg" xmlns:xlink="http://www.w3.org/1999/xlink" >
    <!-- Generator: Sketch 50.2 (55047) - http://www.bohemiancoding.com/sketch -->
    <title>Group 2</title>
    <desc>Created with Sketch.</desc>
    <defs></defs>
    <g id="Page-1" stroke="none" stroke-width="1" fill="none" fill-rule="evenodd">
        <g id="Group-2">
            <g id="Group">
                <ellipse id="Oval" fill="#000000" cx="26.5" cy="26" rx="24.5" ry="25"></ellipse>
                <g id="instagram" fill="#FFFFFF" fill-rule="nonzero">
                    <path d="M24.9979894,30 C27.7535218,30 30,27.7575453 30,25 C30,23.9114688 29.6438633,22.9064386 29.0543262,22.0855131 C28.1458758,20.8259557 26.6690151,20 25.0010076,20 C23.331994,20 21.8561393,20.8249497 20.9456768,22.084507 C20.3541277,22.9054326 20.0010091,23.9104628 20.000003,24.998994 C19.9969849,27.7565392 22.2414511,30 24.9979894,30 Z" id="Shape"></path>
                    <polygon id="Shape" points="38 18.9833403 38 14.6455643 38 14 37.3492793 14.0020825 33 14.0156185 33.0167119 19"></polygon>
                    <path d="M26,0 C11.6636591,0 0,11.6636591 0,26 C0,40.3352936 11.6636591,52 26,52 C40.3352936,52 52,40.3352936 52,26 C52,11.6636591 40.3373882,0 26,0 Z M40.7866753,22.9660034 L40.7866753,35.0726658 C40.7866753,38.2260533 38.2229115,40.7887698 35.0716185,40.7887698 L16.9283815,40.7887698 C13.7760412,40.7887698 11.2133247,38.2260533 11.2133247,35.0726658 L11.2133247,22.9660034 L11.2133247,16.9294288 C11.2133247,13.7770885 13.7760412,11.214372 16.9283815,11.214372 L35.0705712,11.214372 C38.2229115,11.214372 40.7866753,13.7770885 40.7866753,16.9294288 L40.7866753,22.9660034 Z" id="Shape"></path>
                    <path d="M33.3145371,25.0464807 C33.3145371,29.5231352 29.8101605,33.1679753 25.5015175,33.1679753 C21.1928744,33.1679753 17.6895096,29.5231352 17.6895096,25.0464807 C17.6895096,23.9696439 17.8958874,22.940129 18.2641302,22 L14,22 L14,34.1564778 C14,35.7275659 15.2271388,37 16.7375412,37 L34.2624588,37 C35.7708379,37 37,35.7275659 37,34.1564778 L37,22 L32.7338465,22 C33.1051243,22.940129 33.3145371,23.9696439 33.3145371,25.0464807 Z" id="Shape"></path>
                </g>
            </g>
        </g>
    </g>
</svg>